<svg width="64" height="65" viewBox="0 0 64 65" fill="none" xmlns="http://www.w3.org/2000/svg">
<path d="M31.9997 3.3938C37.6694 3.3938 43.2118 5.07507 47.926 8.225C52.6402 11.3749 56.3145 15.8521 58.4842 21.0902C60.6539 26.3284 61.2216 32.0923 60.1155 37.6531C59.0094 43.2138 56.2792 48.3218 52.2701 52.3309C48.261 56.34 43.1531 59.0702 37.5923 60.1763C32.0315 61.2824 26.2676 60.7147 21.0294 58.545C15.7913 56.3753 11.3141 52.701 8.16421 47.9868C5.01428 43.2726 3.33301 37.7302 3.33301 32.0605C3.33654 24.4587 6.3579 17.1692 11.7332 11.794C17.1085 6.4187 24.3979 3.39733 31.9997 3.3938Z" stroke="#242323" stroke-width="3" stroke-linecap="round" stroke-linejoin="round"/>
<path d="M32 28.7272V15.3138M34.8 33.8605L51.0667 44.2605" stroke="#242323" stroke-width="3" stroke-linecap="round" stroke-linejoin="round"/>
<path d="M32 28.7273V15.314" stroke="#242323" stroke-width="3" stroke-linecap="round" stroke-linejoin="round"/>
<path d="M32.0013 35.394C33.8423 35.394 35.3346 33.9016 35.3346 32.0606C35.3346 30.2197 33.8423 28.7273 32.0013 28.7273C30.1604 28.7273 28.668 30.2197 28.668 32.0606C28.668 33.9016 30.1604 35.394 32.0013 35.394Z" stroke="#242323" stroke-width="3" stroke-linecap="round" stroke-linejoin="round"/>
</svg>
