<svg width="64" height="53" viewBox="0 0 64 53" fill="none" xmlns="http://www.w3.org/2000/svg">
<g clip-path="url(#clip0_2383_8024)">
<path d="M40 32.0597V28.8597C40 27.1623 40.6743 25.5344 41.8745 24.3342C43.0748 23.134 44.7026 22.4597 46.4 22.4597C48.0974 22.4597 49.7253 23.134 50.9255 24.3342C52.1257 25.5344 52.8 27.1623 52.8 28.8597V32.0597H54.4C55.2487 32.0597 56.0626 32.3968 56.6628 32.9969C57.2629 33.597 57.6 34.411 57.6 35.2597V48.0597C57.6 48.9084 57.2629 49.7223 56.6628 50.3224C56.0626 50.9225 55.2487 51.2597 54.4 51.2597H38.4C37.5513 51.2597 36.7374 50.9225 36.1373 50.3224C35.5371 49.7223 35.2 48.9084 35.2 48.0597V35.2597C35.2 34.411 35.5371 33.597 36.1373 32.9969C36.7374 32.3968 37.5513 32.0597 38.4 32.0597H40ZM43.2 28.8597V32.0597H49.6V28.8597C49.6 28.011 49.2629 27.197 48.6627 26.5969C48.0626 25.9968 47.2487 25.6597 46.4 25.6597C45.5513 25.6597 44.7374 25.9968 44.1373 26.5969C43.5371 27.197 43.2 28.011 43.2 28.8597ZM48.8 41.6597C48.8 41.0231 48.5471 40.4127 48.0971 39.9626C47.647 39.5125 47.0365 39.2597 46.4 39.2597C45.7635 39.2597 45.153 39.5125 44.7029 39.9626C44.2529 40.4127 44 41.0231 44 41.6597C44 42.2962 44.2529 42.9066 44.7029 43.3567C45.153 43.8068 45.7635 44.0597 46.4 44.0597C47.0365 44.0597 47.647 43.8068 48.0971 43.3567C48.5471 42.9066 48.8 42.2962 48.8 41.6597Z" fill="#242323"/>
<path d="M31.1132 0.32852C31.3758 0.153777 31.6842 0.0605469 31.9996 0.0605469C32.315 0.0605469 32.6234 0.153777 32.886 0.32852C38.9272 4.40115 45.8136 7.05003 53.0268 8.07572C53.4079 8.13039 53.7565 8.32066 54.0087 8.61162C54.2609 8.90257 54.3997 9.2747 54.3996 9.65972V23.5509C53.5797 22.3145 52.4844 21.2848 51.1996 20.5429V11.0293C44.861 9.95335 38.7817 7.69316 33.2796 4.36692L31.9996 3.57012L30.7196 4.36692C25.2176 7.69316 19.1383 9.95335 12.7996 11.0293V24.0597C12.7996 34.9141 19.0972 42.8213 31.9996 47.9413V48.0597C31.9996 49.1541 32.2748 50.1813 32.758 51.0837L32.5756 51.1541C32.2049 51.2972 31.7943 51.2972 31.4236 51.1541C16.9852 45.5957 9.59961 36.5077 9.59961 24.0597V9.65972C9.59967 9.27422 9.73891 8.90171 9.99172 8.61068C10.2445 8.31966 10.5939 8.12969 10.9756 8.07572C18.1877 7.04957 25.073 4.4007 31.1132 0.32852Z" fill="#242323"/>
</g>
<defs>
<clipPath id="clip0_2383_8024">
<rect width="64" height="52" fill="white" transform="translate(0 0.0605469)"/>
</clipPath>
</defs>
</svg>
