<svg width="28" height="29" viewBox="0 0 28 29" fill="none" xmlns="http://www.w3.org/2000/svg">
<path d="M14.4355 26.6708C11.0706 26.6708 7.8435 25.3341 5.46413 22.9547C3.08476 20.5753 1.74805 17.3482 1.74805 13.9833C1.74805 8.84267 4.70117 4.2336 9.27359 2.24352C9.43474 2.17329 9.61331 2.15323 9.78602 2.18594C9.95874 2.21866 10.1176 2.30264 10.2419 2.42694C10.3662 2.55124 10.4502 2.7101 10.4829 2.88281C10.5156 3.05553 10.4955 3.2341 10.4253 3.39524C9.90031 4.60056 9.62305 6.14438 9.62305 7.85829C9.62305 13.8892 14.5296 18.7958 20.5605 18.7958C22.2745 18.7958 23.8183 18.5185 25.0236 17.9935C25.1847 17.9233 25.3633 17.9032 25.536 17.9359C25.7087 17.9687 25.8676 18.0526 25.9919 18.1769C26.1162 18.3012 26.2002 18.4601 26.2329 18.6328C26.2656 18.8055 26.2455 18.9841 26.1753 19.1452C24.1852 23.7177 19.5762 26.6708 14.4355 26.6708Z" fill="#344A51"/>
</svg>
