<svg width="28" height="29" viewBox="0 0 28 29" fill="none" xmlns="http://www.w3.org/2000/svg">
<path fill-rule="evenodd" clip-rule="evenodd" d="M14.0008 6.0207C11.773 6.0207 9.63639 6.9057 8.06108 8.48101C6.48578 10.0563 5.60078 12.1929 5.60078 14.4207C5.60078 16.6485 6.48578 18.7851 8.06108 20.3604C9.63639 21.9357 11.773 22.8207 14.0008 22.8207C16.2286 22.8207 18.3652 21.9357 19.9405 20.3604C21.5158 18.7851 22.4008 16.6485 22.4008 14.4207C22.4008 12.1929 21.5158 10.0563 19.9405 8.48101C18.3652 6.9057 16.2286 6.0207 14.0008 6.0207ZM2.80078 14.4207C2.80078 11.4503 3.98078 8.60152 6.08119 6.50111C8.18159 4.4007 11.0304 3.2207 14.0008 3.2207C16.9712 3.2207 19.82 4.4007 21.9204 6.50111C24.0208 8.60152 25.2008 11.4503 25.2008 14.4207C25.2008 17.3911 24.0208 20.2399 21.9204 22.3403C19.82 24.4407 16.9712 25.6207 14.0008 25.6207C11.0304 25.6207 8.18159 24.4407 6.08119 22.3403C3.98078 20.2399 2.80078 17.3911 2.80078 14.4207Z" fill="#344A51"/>
<path fill-rule="evenodd" clip-rule="evenodd" d="M14.0016 8.8208C14.3729 8.8208 14.729 8.9683 14.9915 9.23085C15.2541 9.4934 15.4016 9.8495 15.4016 10.2208V14.4208C15.4016 14.7921 15.2541 15.1482 14.9915 15.4107C14.729 15.6733 14.3729 15.8208 14.0016 15.8208C13.6303 15.8208 13.2742 15.6733 13.0116 15.4107C12.7491 15.1482 12.6016 14.7921 12.6016 14.4208V10.2208C12.6016 9.8495 12.7491 9.4934 13.0116 9.23085C13.2742 8.9683 13.6303 8.8208 14.0016 8.8208Z" fill="#344A51"/>
<path fill-rule="evenodd" clip-rule="evenodd" d="M19.6016 14.4208C19.6016 14.7921 19.4541 15.1482 19.1915 15.4107C18.929 15.6733 18.5729 15.8208 18.2016 15.8208H14.0016C13.6303 15.8208 13.2742 15.6733 13.0116 15.4107C12.7491 15.1482 12.6016 14.7921 12.6016 14.4208C12.6016 14.0494 12.7491 13.6934 13.0116 13.4308C13.2742 13.1683 13.6303 13.0208 14.0016 13.0208H18.2016C18.5729 13.0208 18.929 13.1683 19.1915 13.4308C19.4541 13.6934 19.6016 14.0494 19.6016 14.4208Z" fill="#344A51"/>
<path d="M1.81487 4.20975C1.55985 3.94571 1.41874 3.59207 1.42193 3.22499C1.42512 2.85792 1.57235 2.50678 1.83193 2.24721C2.0915 1.98764 2.44263 1.8404 2.80971 1.83721C3.17679 1.83402 3.53043 1.97513 3.79447 2.23015L26.1945 24.6302C26.4495 24.8942 26.5906 25.2478 26.5874 25.6149C26.5842 25.982 26.437 26.3331 26.1774 26.5927C25.9178 26.8523 25.5667 26.9995 25.1996 27.0027C24.8326 27.0059 24.4789 26.8648 24.2149 26.6098L1.81487 4.20975Z" fill="#344A51"/>
</svg>
