<svg width="64" height="65" viewBox="0 0 64 65" fill="none" xmlns="http://www.w3.org/2000/svg">
<g clip-path="url(#clip0_2383_8001)">
<path d="M45.3333 37.3939H40.5733C40.152 37.3939 39.7547 37.5939 39.5013 37.9326C39.2507 38.2713 39.1733 38.7113 39.296 39.1139C39.7787 40.7006 39.9973 42.0979 39.9973 42.7246C39.9973 44.1966 38.8 45.3913 37.3307 45.3913C35.8613 45.3913 34.664 44.1966 34.664 42.7246C34.664 42.0979 34.8853 40.6979 35.3653 39.1139C35.488 38.7113 35.4133 38.2713 35.16 37.9326C34.9067 37.5939 34.5093 37.3939 34.088 37.3939H26.6613V18.7273C26.6613 15.7859 24.2693 13.3939 21.328 13.3939H9.33333C4.18667 13.3939 0 17.5806 0 22.7273V54.7273C0 59.8739 4.18667 64.0606 9.33333 64.0606H41.3333C46.48 64.0606 50.6667 59.8739 50.6667 54.7273V42.7273C50.6667 39.7859 48.2747 37.3939 45.3333 37.3939ZM2.66667 22.7273C2.66667 19.0499 5.65867 16.0606 9.33333 16.0606H21.3333C22.8027 16.0606 24 17.2553 24 18.7273V37.3939H18.304C18.5333 36.3566 18.6667 35.4099 18.6667 34.7273C18.6667 31.7859 16.2747 29.3939 13.3333 29.3939C10.392 29.3939 8 31.7859 8 34.7273C8 35.4099 8.13333 36.3566 8.36267 37.3939H2.66667V22.7273ZM24 61.3939H9.33333C5.65867 61.3939 2.66667 58.4046 2.66667 54.7273V40.0606H10.0933C10.5147 40.0606 10.912 39.8606 11.1653 39.5219C11.416 39.1833 11.4933 38.7432 11.3707 38.3406C10.888 36.7539 10.6693 35.3566 10.6693 34.7299C10.6693 33.2579 11.8667 32.0633 13.336 32.0633C14.8053 32.0633 16.0027 33.2579 16.0027 34.7299C16.0027 35.3566 15.7813 36.7566 15.3013 38.3406C15.1787 38.7432 15.2533 39.1833 15.5067 39.5219C15.76 39.8606 16.1573 40.0606 16.5787 40.0606H24.0053V45.7593C22.968 45.5273 22.0187 45.3939 21.3387 45.3939C18.3973 45.3939 16.0053 47.7859 16.0053 50.7273C16.0053 53.6686 18.3973 56.0606 21.3387 56.0606C22.0187 56.0606 22.968 55.9273 24.0053 55.6953V61.3939H24ZM48 54.7273C48 58.4046 45.008 61.3939 41.3333 61.3939H26.6667V53.9673C26.6667 53.5459 26.4667 53.1459 26.128 52.8979C25.7893 52.6419 25.3493 52.5699 24.9467 52.6926C23.36 53.1779 21.9627 53.3966 21.336 53.3966C19.8667 53.3966 18.6693 52.2019 18.6693 50.7299C18.6693 49.2579 19.8667 48.0633 21.336 48.0633C21.9627 48.0633 23.36 48.2819 24.9467 48.7673C25.3493 48.8872 25.7867 48.8153 26.128 48.5619C26.4667 48.3113 26.6667 47.9139 26.6667 47.4926V40.0659H32.3627C32.1333 41.1033 32 42.0499 32 42.7326C32 45.6739 34.392 48.0659 37.3333 48.0659C40.2747 48.0659 42.6667 45.6739 42.6667 42.7326C42.6667 42.0499 42.5333 41.1033 42.304 40.0659H45.3333C46.8027 40.0659 48 41.2606 48 42.7326V54.7326V54.7273Z" fill="#242323" fill-opacity="0.7"/>
<path d="M54.6654 0.0605469H42.6654C39.724 0.0605469 37.332 2.45255 37.332 5.39388V10.1539C37.332 10.5752 37.532 10.9752 37.8707 11.2232C38.2094 11.4792 38.6467 11.5539 39.052 11.4285C40.6387 10.9432 42.036 10.7245 42.6627 10.7245C44.132 10.7245 45.3294 11.9192 45.3294 13.3912C45.3294 14.8632 44.132 16.0579 42.6627 16.0579C42.036 16.0579 40.6387 15.8392 39.052 15.3539C38.644 15.2285 38.2094 15.3005 37.8707 15.5592C37.532 15.8099 37.332 16.2072 37.332 16.6285V21.3885C37.332 24.3299 39.724 26.7219 42.6654 26.7219H45.6947C45.4654 27.7592 45.332 28.7059 45.332 29.3885C45.332 32.3299 47.724 34.7219 50.6654 34.7219C53.6067 34.7219 55.9987 32.3299 55.9987 29.3885C55.9987 28.7059 55.8654 27.7592 55.636 26.7219H58.6654C61.6067 26.7219 63.9987 24.3299 63.9987 21.3885V9.39388C63.9987 4.24721 59.812 0.0605469 54.6654 0.0605469ZM61.332 21.3939C61.332 22.8659 60.1347 24.0605 58.6654 24.0605H53.9054C53.484 24.0605 53.0867 24.2605 52.8334 24.5992C52.5827 24.9379 52.5054 25.3779 52.628 25.7805C53.1107 27.3672 53.3294 28.7645 53.3294 29.3912C53.3294 30.8632 52.132 32.0579 50.6627 32.0579C49.1934 32.0579 47.996 30.8632 47.996 29.3912C47.996 28.7645 48.2174 27.3645 48.6974 25.7805C48.82 25.3779 48.7454 24.9379 48.492 24.5992C48.2387 24.2605 47.8414 24.0605 47.42 24.0605H42.66C41.1907 24.0605 39.9934 22.8659 39.9934 21.3939V18.3619C41.0307 18.5939 41.98 18.7272 42.66 18.7272C45.6014 18.7272 47.9934 16.3352 47.9934 13.3939C47.9934 10.4525 45.6014 8.06055 42.66 8.06055C41.98 8.06055 41.0307 8.19388 39.9934 8.42588V5.39388C39.9934 3.92188 41.1907 2.72721 42.66 2.72721H54.66C58.3347 2.72721 61.3267 5.71655 61.3267 9.39388V21.3939H61.332Z" fill="#242323"/>
</g>
<defs>
<clipPath id="clip0_2383_8001">
<rect width="64" height="64" fill="white" transform="translate(0 0.0605469)"/>
</clipPath>
</defs>
</svg>
