<svg width="64" height="59" viewBox="0 0 64 59" fill="none" xmlns="http://www.w3.org/2000/svg">
<g clip-path="url(#clip0_2383_8017)">
<path fill-rule="evenodd" clip-rule="evenodd" d="M31.9998 4.06055C31.3869 4.06055 30.7801 4.18125 30.2139 4.41578C29.6477 4.6503 29.1333 4.99404 28.6999 5.42738C28.2666 5.86072 27.9228 6.37517 27.6883 6.94136C27.4538 7.50754 27.3331 8.11438 27.3331 8.72721C27.3331 9.34005 27.4538 9.94688 27.6883 10.5131C27.9228 11.0793 28.2666 11.5937 28.6999 12.027C29.1333 12.4604 29.6477 12.8041 30.2139 13.0387C30.7801 13.2732 31.3869 13.3939 31.9998 13.3939C33.2374 13.3939 34.4244 12.9022 35.2996 12.027C36.1748 11.1519 36.6664 9.96489 36.6664 8.72721C36.6664 7.48954 36.1748 6.30255 35.2996 5.42738C34.4244 4.55221 33.2374 4.06055 31.9998 4.06055ZM23.3331 8.72721C23.3331 6.42867 24.2462 4.22427 25.8715 2.59895C27.4968 0.973639 29.7012 0.0605469 31.9998 0.0605469C34.2983 0.0605469 36.5027 0.973639 38.128 2.59895C39.7533 4.22427 40.6664 6.42867 40.6664 8.72721C40.6664 11.0258 39.7533 13.2302 38.128 14.8555C36.5027 16.4808 34.2983 17.3939 31.9998 17.3939C29.7012 17.3939 27.4968 16.4808 25.8715 14.8555C24.2462 13.2302 23.3331 11.0258 23.3331 8.72721ZM34.3171 22.9192C32.7828 22.6628 31.2167 22.6628 29.6824 22.9192C22.9971 24.0472 18.0024 29.9165 18.0024 36.7805C18.0024 38.2845 17.1571 39.6739 15.8051 40.3565L8.90109 43.8472C8.43059 44.0645 7.8941 44.0907 7.40467 43.9202C6.91525 43.7498 6.51111 43.396 6.2774 42.9334C6.04369 42.4708 5.99867 41.9356 6.15183 41.4405C6.30498 40.9454 6.64435 40.529 7.09842 40.2792L13.9971 36.7912L13.9998 36.7832C13.9998 27.9672 20.4051 20.4285 29.0184 18.9779C30.9922 18.6474 33.0073 18.6474 34.9811 18.9779C43.5944 20.4285 49.9998 27.9672 49.9998 36.7832V36.7912L56.9011 40.2792C57.1449 40.3918 57.3635 40.5524 57.544 40.7513C57.7244 40.9502 57.8629 41.1835 57.9512 41.4371C58.0396 41.6907 58.0759 41.9595 58.0581 42.2275C58.0403 42.4955 57.9687 42.7571 57.8476 42.9968C57.7265 43.2365 57.5584 43.4494 57.3532 43.6227C57.1481 43.796 56.9101 43.9262 56.6535 44.0056C56.397 44.085 56.127 44.1118 55.8599 44.0846C55.5927 44.0574 55.3337 43.9767 55.0984 43.8472L48.1944 40.3592C47.5337 40.0244 46.9788 39.5129 46.5914 38.8816C46.2039 38.2503 45.9991 37.5239 45.9998 36.7832C45.9998 29.9192 41.0051 24.0499 34.3171 22.9219M26.5331 37.7939C26.9574 38.1121 27.238 38.5859 27.313 39.111C27.388 39.6361 27.2514 40.1695 26.9331 40.5939L24.1438 44.3139L23.9544 44.5619C22.9241 45.8652 21.4819 46.78 19.8638 47.1565L19.8424 47.1619L15.8824 48.1512C14.9636 48.3808 14.148 48.9111 13.5652 49.6576C12.9825 50.4042 12.6661 51.3242 12.6664 52.2712C12.6664 52.8899 13.1704 53.3939 13.7891 53.3939H17.9384C19.5838 53.3939 20.2451 53.3912 20.8798 53.3139C22.4219 53.1334 23.9105 52.6378 25.2531 51.8579C25.8024 51.5379 26.3331 51.1432 27.6478 50.1565L28.1331 49.7939L33.4664 45.7939C33.8908 45.4756 34.4242 45.339 34.9493 45.414C35.4744 45.489 35.9482 45.7695 36.2664 46.1939C36.5847 46.6182 36.7213 47.1516 36.6463 47.6767C36.5713 48.2018 36.2908 48.6756 35.8664 48.9939L33.4558 50.8019L36.8078 52.0605C38.4798 52.6872 39.1544 52.9352 39.8398 53.0979C40.2097 53.1831 40.5834 53.2507 40.9598 53.3005C41.6558 53.3912 42.3731 53.3939 44.1598 53.3939H50.2104C50.5082 53.3939 50.7937 53.2756 51.0043 53.0651C51.2148 52.8545 51.3331 52.569 51.3331 52.2712C51.3331 50.3246 50.0078 48.6232 48.1171 48.1512L44.1358 47.1565L43.8371 47.0765C42.2362 46.6329 40.8335 45.6588 39.8584 44.3139L39.8451 44.2979L37.0664 40.5939C36.9088 40.3838 36.7942 40.1447 36.729 39.8902C36.6638 39.6358 36.6494 39.371 36.6865 39.111C36.7237 38.851 36.8117 38.6009 36.9455 38.3749C37.0793 38.1489 37.2563 37.9515 37.4664 37.7939C37.6765 37.6363 37.9156 37.5216 38.1701 37.4565C38.4245 37.3913 38.6893 37.3768 38.9493 37.414C39.2093 37.4511 39.4594 37.5391 39.6854 37.6729C39.9114 37.8067 40.1088 37.9838 40.2664 38.1939L43.0451 41.8979L43.1838 42.0819C43.6702 42.6984 44.3586 43.1234 45.1278 43.2819L49.0878 44.2685C50.8718 44.7146 52.4555 45.7443 53.5871 47.1938C54.7187 48.6434 55.3333 50.4296 55.3331 52.2685C55.3331 55.1005 53.0398 57.3939 50.2104 57.3939H44.0238C42.4158 57.3939 41.4264 57.3939 40.4424 57.2659C39.9333 57.1997 39.4277 57.1081 38.9278 56.9912C37.9624 56.7646 37.0344 56.4179 35.5331 55.8552L29.6584 53.6525C28.6424 54.4125 27.9731 54.9059 27.2584 55.3166C25.4436 56.3721 23.4314 57.0438 21.3464 57.2899C20.4531 57.3965 19.5438 57.3939 18.0664 57.3939H13.7918C12.4336 57.3932 11.1313 56.8532 10.1712 55.8925C9.2111 54.9319 8.67176 53.6294 8.67176 52.2712C8.67048 50.4324 9.2843 48.646 10.4155 47.1963C11.5468 45.7466 13.1304 44.7169 14.9144 44.2712L18.8744 43.2819L19.0984 43.2232C19.8547 43.014 20.5128 42.5446 20.9571 41.8979L23.7331 38.1939C23.8907 37.9838 24.0881 37.8067 24.3141 37.6729C24.5401 37.5391 24.7902 37.4511 25.0502 37.414C25.3103 37.3768 25.575 37.3913 25.8294 37.4565C26.0839 37.5216 26.323 37.6363 26.5331 37.7939Z" fill="#242323" fill-opacity="0.7"/>
<path fill-rule="evenodd" clip-rule="evenodd" d="M31.9997 4.06055C31.3868 4.06055 30.78 4.18125 30.2138 4.41578C29.6476 4.6503 29.1332 4.99404 28.6998 5.42738C28.2665 5.86072 27.9228 6.37517 27.6882 6.94136C27.4537 7.50754 27.333 8.11438 27.333 8.72721C27.333 9.34005 27.4537 9.94688 27.6882 10.5131C27.9228 11.0793 28.2665 11.5937 28.6998 12.027C29.1332 12.4604 29.6476 12.8041 30.2138 13.0387C30.78 13.2732 31.3868 13.3939 31.9997 13.3939C33.2374 13.3939 34.4243 12.9022 35.2995 12.027C36.1747 11.1519 36.6663 9.96489 36.6663 8.72721C36.6663 7.48954 36.1747 6.30255 35.2995 5.42738C34.4243 4.55221 33.2374 4.06055 31.9997 4.06055ZM23.333 8.72721C23.333 6.42867 24.2461 4.22427 25.8714 2.59895C27.4967 0.973639 29.7011 0.0605469 31.9997 0.0605469C34.2982 0.0605469 36.5026 0.973639 38.1279 2.59895C39.7533 4.22427 40.6663 6.42867 40.6663 8.72721C40.6663 11.0258 39.7533 13.2302 38.1279 14.8555C36.5026 16.4808 34.2982 17.3939 31.9997 17.3939C29.7011 17.3939 27.4967 16.4808 25.8714 14.8555C24.2461 13.2302 23.333 11.0258 23.333 8.72721Z" fill="#242323"/>
</g>
<defs>
<clipPath id="clip0_2383_8017">
<rect width="64" height="58" fill="white" transform="translate(0 0.0605469)"/>
</clipPath>
</defs>
</svg>
