<svg width="64" height="53" viewBox="0 0 64 53" fill="none" xmlns="http://www.w3.org/2000/svg">
<g clip-path="url(#clip0_2383_8030)">
<path d="M31.9993 27.394C32.7357 27.394 33.3327 26.797 33.3327 26.0606C33.3327 25.3242 32.7357 24.7273 31.9993 24.7273C31.263 24.7273 30.666 25.3242 30.666 26.0606C30.666 26.797 31.263 27.394 31.9993 27.394Z" stroke="#242323" stroke-opacity="0.7" stroke-width="11" stroke-linecap="round" stroke-linejoin="round"/>
<path d="M13.3333 26.0605C13.3333 28.5119 13.8162 30.9392 14.7542 33.204C15.6923 35.4687 17.0673 37.5265 18.8007 39.2599C20.534 40.9932 22.5918 42.3682 24.8566 43.3063C27.1213 44.2444 29.5487 44.7272 32 44.7272M13.3333 26.0605C13.3333 23.6092 13.8162 21.1819 14.7542 18.9171C15.6923 16.6524 17.0673 14.5946 18.8007 12.8612C20.534 11.1279 22.5918 9.75288 24.8566 8.8148C27.1213 7.87671 29.5487 7.39388 32 7.39388M13.3333 26.0605H8M32 44.7272C34.4513 44.7272 36.8787 44.2444 39.1434 43.3063C41.4082 42.3682 43.466 40.9932 45.1993 39.2599C46.9327 37.5265 48.3077 35.4687 49.2458 33.204C50.1838 30.9392 50.6667 28.5119 50.6667 26.0605M32 44.7272V50.0605M50.6667 26.0605C50.6667 23.6092 50.1838 21.1819 49.2458 18.9171C48.3077 16.6524 46.9327 14.5946 45.1993 12.8612C43.466 11.1279 41.4082 9.75288 39.1434 8.8148C36.8787 7.87671 34.4513 7.39388 32 7.39388M50.6667 26.0605H56M32 7.39388V2.06055" stroke="#242323" stroke-width="3" stroke-linecap="round" stroke-linejoin="round"/>
</g>
<defs>
<clipPath id="clip0_2383_8030">
<rect width="64" height="52" fill="white" transform="translate(0 0.0605469)"/>
</clipPath>
</defs>
</svg>
