<svg width="52" height="40" viewBox="0 0 52 40" fill="none" xmlns="http://www.w3.org/2000/svg">
<path d="M44.0875 3.31499C40.6687 1.74575 37.0582 0.633471 33.349 0.00683594C32.8764 0.820884 32.3519 1.92443 31.9832 2.79044C28.0387 2.21283 24.0312 2.21283 20.0867 2.79044C19.7181 1.92443 19.1638 0.820884 18.7184 0.00683594C15.0059 0.626081 11.3928 1.73864 7.97497 3.31499C1.17804 13.3458 -0.660374 23.1416 0.26007 32.8038C4.24273 35.7279 8.69173 37.9566 13.4185 39.3954C14.4803 37.9621 15.4205 36.4425 16.2293 34.8526C14.6779 34.2736 13.2106 33.5659 11.7904 32.7246C12.159 32.4624 12.5252 32.1729 12.8667 31.8834C21.4278 35.7977 30.699 35.7977 39.1538 31.8834C39.5224 32.1729 39.8639 32.4624 40.2301 32.7246C38.8123 33.5659 37.3426 34.2736 35.7936 34.8526C36.6016 36.4424 37.541 37.962 38.602 39.3954C43.3304 37.9609 47.7801 35.7319 51.7604 32.8038C52.8911 21.6199 49.9739 11.9008 44.09 3.31499M17.407 26.8432C14.8338 26.8432 12.7331 24.505 12.7331 21.6447C12.7331 18.7819 14.7818 16.4437 17.4095 16.4437C20.0075 16.4437 22.1355 18.7819 22.081 21.6447C22.081 24.505 20.0075 26.8432 17.407 26.8432ZM34.6629 26.8407C32.0896 26.8407 29.9864 24.5025 29.9864 21.6422C29.9864 18.7794 32.0352 16.4412 34.6629 16.4412C37.2609 16.4412 39.3888 18.7794 39.3369 21.6422C39.3369 24.5025 37.2881 26.8383 34.6604 26.8383" fill="white"/>
</svg>
