<svg width="52" height="40" viewBox="0 0 52 40" fill="none" xmlns="http://www.w3.org/2000/svg">
<path d="M44.0875 3.72881C40.6687 2.15957 37.0582 1.04729 33.349 0.420654C32.8764 1.2347 32.3519 2.33825 31.9832 3.20425C28.0387 2.62665 24.0312 2.62665 20.0867 3.20425C19.7181 2.33825 19.1638 1.2347 18.7184 0.420654C15.0059 1.0399 11.3928 2.15246 7.97497 3.72881C1.17804 13.7597 -0.660374 23.5555 0.26007 33.2176C4.24273 36.1417 8.69173 38.3704 13.4185 39.8092C14.4803 38.3759 15.4205 36.8563 16.2293 35.2664C14.6779 34.6874 13.2106 33.9797 11.7904 33.1385C12.159 32.8762 12.5252 32.5867 12.8667 32.2972C21.4278 36.2116 30.699 36.2116 39.1538 32.2972C39.5224 32.5867 39.8639 32.8762 40.2301 33.1385C38.8123 33.9797 37.3426 34.6874 35.7936 35.2664C36.6016 36.8562 37.541 38.3758 38.602 39.8092C43.3304 38.3747 47.7801 36.1457 51.7604 33.2176C52.8911 22.0338 49.9739 12.3147 44.09 3.72881M17.407 27.257C14.8338 27.257 12.7331 24.9188 12.7331 22.0585C12.7331 19.1957 14.7818 16.8575 17.4095 16.8575C20.0075 16.8575 22.1355 19.1957 22.081 22.0585C22.081 24.9188 20.0075 27.257 17.407 27.257ZM34.6629 27.2546C32.0896 27.2546 29.9864 24.9163 29.9864 22.056C29.9864 19.1933 32.0352 16.855 34.6629 16.855C37.2609 16.855 39.3888 19.1933 39.3369 22.056C39.3369 24.9163 37.2881 27.2521 34.6604 27.2521" fill="#303034"/>
</svg>
