<svg width="43" height="40" viewBox="0 0 43 40" fill="none" xmlns="http://www.w3.org/2000/svg">
<path d="M9.70761 4.439C9.70703 5.59966 9.2454 6.71255 8.42428 7.53284C7.60316 8.35314 6.48981 8.81366 5.32915 8.81308C4.1685 8.8125 3.05561 8.35087 2.23531 7.52975C1.41501 6.70863 0.954498 5.59528 0.955079 4.43462C0.955659 3.27397 1.41728 2.16108 2.2384 1.34078C3.05952 0.52048 4.17287 0.0599671 5.33353 0.0605474C6.49419 0.0611278 7.60708 0.522753 8.42738 1.34387C9.24767 2.16499 9.70819 3.27834 9.70761 4.439ZM9.83889 12.0537H1.08637V39.4491H9.83889V12.0537ZM23.6679 12.0537H14.9591V39.4491H23.5804V25.0731C23.5804 17.0645 34.0177 16.3206 34.0177 25.0731V39.4491H42.6609V22.0972C42.6609 8.59645 27.2127 9.09972 23.5804 15.7298L23.6679 12.0537Z" fill="white"/>
</svg>
