<svg width="43" height="40" viewBox="0 0 43 40" fill="none" xmlns="http://www.w3.org/2000/svg">
<path d="M9.70761 4.79911C9.70703 5.95976 9.2454 7.07265 8.42428 7.89295C7.60316 8.71325 6.48981 9.17376 5.32915 9.17318C4.1685 9.1726 3.05561 8.71098 2.23531 7.88986C1.41501 7.06874 0.954498 5.95539 0.955079 4.79473C0.955659 3.63407 1.41728 2.52118 2.2384 1.70089C3.05952 0.880587 4.17287 0.420075 5.33353 0.420655C6.49419 0.421235 7.60708 0.882861 8.42738 1.70398C9.24767 2.5251 9.70819 3.63845 9.70761 4.79911ZM9.83889 12.4138H1.08637V39.8092H9.83889V12.4138ZM23.6679 12.4138H14.9591V39.8092H23.5804V25.4332C23.5804 17.4246 34.0177 16.6807 34.0177 25.4332V39.8092H42.6609V22.4573C42.6609 8.95656 27.2127 9.45983 23.5804 16.0899L23.6679 12.4138Z" fill="#303034"/>
</svg>
